<svg width="400" height="600" viewBox="0 0 400 600" xmlns="http://www.w3.org/2000/svg">
  <rect width="400" height="600" fill="#1E293B"/>
  <g transform="translate(150, 225) scale(2.5)">
    <path d="M12 6.253v13m0-13C10.832 5.477 9.246 5 7.5 5S4.168 5.477 3 6.253v13C4.168 18.477 5.754 18 7.5 18s3.332.477 4.5 1.253m0-13C13.168 5.477 14.754 5 16.5 5c1.747 0 3.332.477 4.5 1.253v13C19.832 18.477 18.246 18 16.5 18c-1.746 0-3.332.477-4.5 1.253" stroke="#475569" stroke-width="1.5" stroke-linecap="round" stroke-linejoin="round" fill="none"/>
  </g>
  <text x="200" y="380" font-family="Inter, sans-serif" font-size="24" fill="#475569" text-anchor="middle">No Cover Available</text>
</svg>